<svg xmlns="http://www.w3.org/2000/svg" width="31.851" height="27.938" viewBox="0 0 31.851 27.938">
  <g id="Group_2926" data-name="Group 2926" transform="translate(31.851 27.938) rotate(180)">
    <g id="arrow-point-to-right" transform="translate(15.925 27.937) rotate(180)">
      <path id="Path_1467" data-name="Path 1467" d="M15.352,15.352,3.34,27.364A1.956,1.956,0,0,1,.573,24.6L11.2,13.969.573,3.34A1.956,1.956,0,0,1,3.34.573L15.353,12.586a1.956,1.956,0,0,1,0,2.766Z"/>
    </g>
    <g id="arrow-point-to-right-2" data-name="arrow-point-to-right" transform="translate(31.851 27.937) rotate(180)">
      <path id="Path_1467-2" data-name="Path 1467" d="M15.352,15.352,3.34,27.364A1.956,1.956,0,0,1,.573,24.6L11.2,13.969.573,3.34A1.956,1.956,0,0,1,3.34.573L15.353,12.586a1.956,1.956,0,0,1,0,2.766Z"/>
    </g>
  </g>
</svg>
